<svg width="1920" height="1280" viewBox="0 0 1920 1280" fill="none" xmlns="http://www.w3.org/2000/svg">
<rect width="1920" height="1280" rx="96" fill="#00CC66"/>
<g style="mix-blend-mode:luminosity" clip-path="url(#clip0_3322_12)">
<path fill-rule="evenodd" clip-rule="evenodd" d="M485.046 572.174C486.677 573.122 488.467 573.596 490.253 573.596C492.043 573.596 493.83 573.122 495.461 572.174L592.829 515.563C594.808 514.412 596.175 512.452 596.581 510.185C596.986 507.923 596.385 505.606 594.927 503.833C589.476 497.192 583.472 490.914 577.066 485.162L590.097 462.43C592.017 459.08 591.189 454.764 588.172 452.391C574.335 441.509 559.122 432.501 542.959 425.615C542.122 425.258 541.283 424.909 540.443 424.564C536.89 423.113 532.761 424.547 530.838 427.9L517.795 450.649C508.339 447.501 498.549 445.196 488.674 443.788C486.456 443.471 484.204 444.14 482.508 445.622C480.812 447.104 479.839 449.252 479.839 451.514V563.091C479.839 566.884 481.785 570.277 485.046 572.174ZM489.468 453.708C498.523 455.127 507.485 457.346 516.138 460.317C519.641 461.516 523.521 460.054 525.361 456.841L538.353 434.183L538.539 434.261C538.76 434.355 538.986 434.45 539.207 434.546C554.088 440.884 568.118 449.109 580.937 459.014L567.956 481.655C566.113 484.871 566.782 488.972 569.55 491.411C575.452 496.612 581.002 502.285 586.076 508.291L490.648 563.777C490.387 563.928 490.12 563.928 489.859 563.777C489.598 563.625 489.468 563.394 489.468 563.091L489.468 453.708Z" fill="white"/>
<path fill-rule="evenodd" clip-rule="evenodd" d="M436.122 657.514C432.86 655.617 428.966 655.617 425.705 657.514L337.239 708.953C335.254 710.106 333.887 712.071 333.484 714.345C333.085 716.613 333.694 718.932 335.158 720.703C340.492 727.149 346.346 733.244 352.577 738.839L339.545 761.571C337.625 764.918 338.45 769.234 341.471 771.61C355.305 782.492 370.515 791.5 386.684 798.386C387.52 798.743 388.36 799.092 389.199 799.434C390.135 799.817 391.108 800 392.075 800C394.772 800 397.387 798.572 398.802 796.101L411.845 773.352C418.465 775.555 425.268 777.354 432.086 778.705C434.366 779.156 436.703 778.562 438.501 777.074C440.297 775.586 441.329 773.389 441.329 771.047V666.596C441.329 662.806 439.381 659.41 436.122 657.514ZM431.7 768.728C425.546 767.414 419.42 765.718 413.467 763.673C409.99 762.476 406.122 763.944 404.278 767.16L391.289 789.818C391.003 789.698 390.716 789.578 390.433 789.455C375.552 783.117 361.519 774.889 348.703 764.987L361.683 742.346C363.527 739.13 362.858 735.026 360.09 732.587C354.364 727.537 348.958 722.036 344.001 716.216L430.521 665.911C430.782 665.759 431.045 665.759 431.306 665.911C431.567 666.062 431.7 666.294 431.7 666.596L431.7 768.728Z" fill="white"/>
<path fill-rule="evenodd" clip-rule="evenodd" d="M406.45 605.76C409.712 607.657 411.657 611.053 411.657 614.845C411.657 618.635 409.712 622.031 406.45 623.928L317.849 675.444C316.654 676.138 315.319 676.489 313.977 676.489C313.092 676.489 312.205 676.338 311.351 676.029C309.204 675.252 307.514 673.57 306.717 671.419C303.716 663.325 301.32 654.943 299.584 646.474H273.529C269.675 646.474 266.374 643.567 265.852 639.708C264.624 630.623 264 621.297 264 612.001C264 602.701 264.624 593.379 265.852 584.291C266.374 580.435 269.675 577.527 273.529 577.527H299.584C300.968 570.767 302.778 564.046 304.97 557.526C305.713 555.307 307.392 553.559 309.57 552.731C311.754 551.902 314.162 552.102 316.181 553.276L406.45 605.76ZM314.97 665.921L401.637 615.531C401.898 615.38 402.032 615.148 402.032 614.845C402.032 614.54 401.898 614.311 401.637 614.157L313.368 562.835C311.473 568.759 309.913 574.84 308.722 580.943C308.013 584.582 304.819 587.221 301.127 587.221H275.18C274.15 595.364 273.628 603.692 273.628 612.001C273.628 620.309 274.15 628.638 275.18 636.777H301.127C304.817 636.777 308.013 639.417 308.722 643.052C310.234 650.801 312.332 658.481 314.97 665.921Z" fill="white"/>
<path fill-rule="evenodd" clip-rule="evenodd" d="M656.111 577.526H630.056C628.366 569.277 626.051 561.115 623.17 553.237C622.379 551.075 620.691 549.387 618.539 548.602C616.386 547.817 614.012 548.028 612.027 549.182L514.716 605.762C511.457 607.658 509.509 611.054 509.509 614.844C509.509 618.637 511.457 622.033 514.716 623.926L610.237 679.467C611.429 680.158 612.767 680.512 614.111 680.512C614.962 680.512 615.813 680.372 616.636 680.086C618.757 679.352 620.456 677.73 621.295 675.636C625.073 666.223 628.02 656.421 630.056 646.473H656.111C659.965 646.473 663.266 643.565 663.788 639.709C665.016 630.621 665.64 621.299 665.64 611.999C665.64 602.703 665.016 593.38 663.788 584.292C663.266 580.433 659.968 577.526 656.111 577.526ZM654.46 636.779H628.516C624.82 636.779 621.627 639.418 620.918 643.057C619.131 652.216 616.525 661.262 613.167 669.973L519.531 615.532C519.27 615.378 519.137 615.147 519.137 614.844C519.137 614.541 519.27 614.31 519.531 614.159L614.894 558.71C617.424 565.941 619.449 573.41 620.918 580.942C621.627 584.581 624.82 587.222 628.513 587.222H654.46C655.49 595.362 656.012 603.691 656.012 611.999C656.012 620.311 655.49 628.636 654.46 636.779Z" fill="white"/>
<path fill-rule="evenodd" clip-rule="evenodd" d="M495.461 657.513L589.599 712.248C591.616 713.422 592.991 715.424 593.368 717.743C593.745 720.057 593.082 722.396 591.545 724.155C587.035 729.319 582.169 734.255 577.064 738.839L590.095 761.57C592.015 764.918 591.19 769.233 588.173 771.61C574.335 782.492 559.123 791.5 542.957 798.386C542.123 798.743 541.281 799.091 540.441 799.434C539.505 799.817 538.53 800 537.566 800C534.869 800 532.254 798.572 530.838 796.101L517.795 773.352C508.337 776.499 498.547 778.804 488.672 780.212C486.448 780.529 484.205 779.861 482.509 778.379C480.813 776.896 479.84 774.749 479.84 772.487V666.599C479.84 662.806 481.786 659.41 485.047 657.513C488.309 655.617 492.2 655.62 495.461 657.513ZM567.957 742.346C566.114 739.13 566.783 735.026 569.551 732.586C574.191 728.496 578.635 724.095 582.784 719.483L490.646 665.91C490.385 665.759 490.121 665.759 489.86 665.91C489.599 666.062 489.466 666.293 489.466 666.599V770.293C498.521 768.874 507.483 766.654 516.139 763.684C516.962 763.404 517.804 763.267 518.638 763.267C521.352 763.267 523.953 764.701 525.362 767.16L538.351 789.817C538.638 789.698 538.921 789.578 539.208 789.455C554.089 783.117 568.119 774.891 580.938 764.986L567.957 742.346Z" fill="white"/>
<path fill-rule="evenodd" clip-rule="evenodd" d="M432.087 445.296C425.266 446.647 418.465 448.447 411.846 450.649L398.802 427.9C396.88 424.547 392.75 423.113 389.2 424.564C388.357 424.909 387.518 425.258 386.681 425.615C370.515 432.501 355.303 441.509 341.471 452.391C338.454 454.764 337.626 459.077 339.543 462.43L352.577 485.162C345.045 491.926 338.091 499.386 331.894 507.357C330.51 509.136 329.963 511.43 330.388 513.649C330.816 515.871 332.177 517.793 334.12 518.924L425.706 572.174C427.336 573.122 429.126 573.596 430.913 573.596C432.702 573.596 434.492 573.122 436.122 572.174C439.381 570.278 441.329 566.882 441.329 563.092V452.954C441.329 450.612 440.297 448.415 438.499 446.924C436.704 445.436 434.367 444.845 432.087 445.296ZM431.701 563.092C431.701 563.394 431.568 563.626 431.307 563.777C431.046 563.928 430.782 563.931 430.521 563.777L340.822 511.624C346.63 504.364 353.105 497.572 360.09 491.411C362.855 488.975 363.527 484.871 361.684 481.655L348.703 459.015C361.519 449.109 375.552 440.884 390.433 434.543C390.586 434.479 390.74 434.414 390.893 434.349L391.287 434.183L404.276 456.838C406.12 460.057 409.985 461.525 413.468 460.328C419.421 458.283 425.544 456.587 431.701 455.27L431.701 563.092Z" fill="white"/>
<path d="M779.086 625.997C786.627 625.997 797.228 624.404 810.89 621.211L810.89 640.689C799.194 643.111 787.719 644.322 776.466 644.322C771.653 644.322 767.365 644.102 763.596 643.662C759.824 643.223 755.697 642.397 751.219 641.186C746.19 639.864 742.039 638.133 738.76 635.985C735.481 633.84 732.748 630.841 730.564 626.988C728.266 623.136 727.121 618.569 727.121 613.285V566.233C727.121 544.664 743.567 533.876 776.466 533.876C784.88 533.876 796.137 535.087 810.235 537.506V556.822C797.555 553.743 786.409 552.201 776.792 552.201C772.748 552.201 769.605 552.309 767.365 552.529C765.124 552.752 762.801 553.3 760.399 554.18C755.26 555.942 752.694 559.852 752.694 565.902V611.468C752.694 621.156 761.488 625.997 779.086 625.997Z" fill="white"/>
<path fill-rule="evenodd" clip-rule="evenodd" d="M895.89 568.545C893.431 566.454 890.232 564.803 886.299 563.592C882.691 562.492 879.384 561.804 876.381 561.527C873.375 561.256 869.356 561.116 864.33 561.116C860.941 561.116 857.172 561.227 853.02 561.444C849.412 561.776 845.726 562.575 841.954 563.841C838.184 565.106 835.15 566.674 832.855 568.545C830.232 570.747 828.102 573.828 826.463 577.79C824.824 581.751 824.004 586.375 824.004 591.659V615.265C824.004 620.44 824.824 624.842 826.463 628.475C828.102 632.216 830.121 635.107 832.526 637.14C834.929 639.179 838.102 640.747 842.036 641.847C845.643 642.838 849.03 643.498 852.2 643.829C855.368 644.158 859.412 644.323 864.33 644.323C868.922 644.323 872.855 644.158 876.134 643.829C879.741 643.498 883.428 642.755 887.2 641.599C890.969 640.442 893.947 638.931 896.134 637.06C898.647 634.97 900.697 632.053 902.283 628.309C903.865 624.567 904.659 620.218 904.659 615.265V591.659C904.659 586.156 903.84 581.423 902.2 577.458C900.451 573.609 898.349 570.635 895.89 568.545ZM880.726 618.073C880.726 621.046 880.258 623.302 879.33 624.842C878.4 626.384 876.789 627.512 874.495 628.226C872.2 628.943 868.811 629.3 864.33 629.3C859.849 629.3 856.463 628.943 854.166 628.226C851.871 627.512 850.258 626.384 849.33 624.842C848.4 623.302 847.938 621.046 847.938 618.073V587.861C847.938 583.459 849.083 580.378 851.381 578.615C853.675 576.856 857.992 575.973 864.33 575.973C870.669 575.973 874.988 576.856 877.283 578.615C879.577 580.378 880.726 583.459 880.726 587.861V618.073Z" fill="white"/>
<path d="M1010.89 575.973C1006.41 575.973 1003.21 576.25 1001.3 576.798C999.385 577.353 998.128 578.366 997.527 579.855C996.926 581.34 996.625 583.844 996.625 587.366V642.672H972.691V587.366C972.691 583.844 972.47 581.34 972.036 579.855C971.597 578.366 970.641 577.353 969.166 576.798C967.691 576.25 965.15 575.973 961.543 575.973C957.062 575.973 953.866 576.25 951.954 576.798C950.04 577.353 948.783 578.366 948.182 579.855C947.581 581.34 947.28 583.844 947.28 587.366V642.672H923.347V562.766H947.28V572.506C948.809 564.911 956.625 561.116 970.723 561.116C978.157 561.116 983.783 562.081 987.609 564.006C991.432 565.931 994.002 568.933 995.315 573.003C996.625 568.821 999.166 565.794 1002.94 563.92C1006.71 562.052 1012.42 561.116 1020.07 561.116C1026.95 561.116 1032.25 561.915 1035.97 563.509C1039.69 565.106 1042.28 567.553 1043.76 570.855C1045.23 574.157 1045.97 578.561 1045.97 584.064V642.672H1022.04V587.366C1022.04 583.844 1021.82 581.34 1021.38 579.855C1020.94 578.366 1019.99 577.353 1018.51 576.798C1017.04 576.25 1014.5 575.973 1010.89 575.973Z" fill="white"/>
<path fill-rule="evenodd" clip-rule="evenodd" d="M1144.66 632.601C1146.95 628.308 1148.1 622.199 1148.1 614.276V588.026C1148.1 582.965 1147.72 578.974 1146.95 576.056C1146.19 573.142 1144.77 570.472 1142.69 568.05C1140.5 565.631 1137.31 563.868 1133.1 562.766C1128.89 561.666 1123.35 561.115 1116.46 561.115C1108.27 561.115 1102.09 561.832 1097.94 563.26C1093.78 564.694 1090.99 567.17 1089.58 570.692V562.766H1066.95V677.011H1090.89V634.583C1091.87 638.436 1094.11 641.021 1097.61 642.34C1101.1 643.663 1106.79 644.323 1114.66 644.323C1122.85 644.323 1129.33 643.44 1134.09 641.681C1138.84 639.921 1142.36 636.894 1144.66 632.601ZM1124.17 617.412C1124.17 620.714 1123.73 623.19 1122.85 624.841C1121.98 626.492 1120.34 627.648 1117.94 628.308C1115.53 628.968 1111.98 629.299 1107.28 629.299C1102.58 629.299 1099.09 628.968 1096.79 628.308C1094.49 627.648 1092.94 626.492 1092.12 624.841C1091.3 623.19 1090.89 620.714 1090.89 617.412V587.86C1090.89 584.781 1091.3 582.413 1092.12 580.763C1092.94 579.112 1094.52 577.901 1096.87 577.129C1099.22 576.361 1102.63 575.973 1107.12 575.973C1112.36 575.973 1116.13 576.25 1118.43 576.798C1120.72 577.352 1122.25 578.423 1123.02 580.017C1123.78 581.616 1124.17 584.23 1124.17 587.86V617.412Z" fill="white"/>
<path fill-rule="evenodd" clip-rule="evenodd" d="M1238.27 587.696V642.671L1214.82 642.671V635.407C1212.96 638.601 1210.45 640.857 1207.28 642.176C1204.11 643.605 1198.1 644.321 1189.25 644.321C1181.81 644.321 1176.27 643.633 1172.61 642.259C1168.95 640.883 1166.38 638.406 1164.9 634.831C1163.43 631.255 1162.69 625.888 1162.69 618.733C1162.69 612.35 1163.48 607.343 1165.07 603.71C1166.65 600.077 1169.22 597.464 1172.77 595.867C1176.32 594.274 1181.21 593.474 1187.45 593.474H1214.33V588.024C1214.33 584.614 1213.86 582.081 1212.94 580.43C1212.01 578.779 1210.31 577.625 1207.85 576.965C1205.4 576.303 1201.71 575.974 1196.79 575.974C1190.01 575.974 1180.72 576.634 1168.92 577.954V562.768C1177.55 561.668 1187.66 561.114 1199.25 561.114C1209.41 561.114 1217.25 561.888 1222.77 563.427C1228.29 564.97 1232.25 567.609 1234.66 571.35C1237.06 575.095 1238.27 580.541 1238.27 587.696ZM1213.67 625.668C1214.11 624.9 1214.33 623.743 1214.33 622.201V606.681H1197.94C1194.22 606.681 1191.6 606.929 1190.07 607.423C1188.53 607.92 1187.5 608.908 1186.95 610.396C1186.4 611.882 1186.13 614.498 1186.13 618.239C1186.13 621.87 1186.4 624.403 1186.95 625.831C1187.5 627.265 1188.56 628.201 1190.15 628.639C1191.73 629.081 1194.55 629.298 1198.59 629.298C1203.4 629.298 1206.84 629.133 1208.92 628.804C1210.45 628.584 1211.52 628.253 1212.12 627.813C1212.72 627.376 1213.24 626.656 1213.67 625.668Z" fill="white"/>
<path d="M1281.21 616.588V587.201C1281.21 579.715 1286.73 575.974 1297.77 575.974C1303.78 575.974 1312.42 577.293 1323.68 579.935V564.087C1313.73 562.108 1305.7 561.116 1299.57 561.116H1290.89C1288.37 561.225 1285.48 561.502 1282.2 561.942C1278.92 562.382 1276.3 562.933 1274.33 563.593C1271.92 564.472 1269.55 565.655 1267.2 567.14C1264.85 568.628 1263.07 570.253 1261.87 572.012C1258.59 576.856 1256.95 582.908 1256.95 590.172V616.751C1256.95 625.779 1259.19 632.162 1263.67 635.904C1266.08 638.106 1268.4 639.757 1270.64 640.856C1272.88 641.959 1275.75 642.727 1279.25 643.167C1282.75 643.604 1285.7 643.91 1288.1 644.075C1290.5 644.241 1293.78 644.324 1297.94 644.324C1305.91 644.324 1314.88 643.387 1324.82 641.516V625.667C1313.78 628.09 1305.31 629.298 1299.41 629.298C1287.28 629.298 1281.21 625.065 1281.21 616.588Z" fill="white"/>
<path d="M1345.48 539.654H1369.41V562.766H1391.22V577.626H1369.41V615.267C1369.41 619.12 1369.74 622.01 1370.4 623.932C1371.05 625.86 1372.31 627.237 1374.16 628.062C1376.02 628.888 1378.86 629.299 1382.69 629.299C1384.22 629.299 1387.06 629.025 1391.22 628.473V643.497C1386.08 644.048 1381.65 644.322 1377.94 644.322C1373.89 644.322 1370.5 644.156 1367.77 643.828C1365.04 643.497 1362.31 642.837 1359.58 641.846C1356.52 640.855 1354.03 639.481 1352.12 637.719C1350.2 635.959 1348.65 633.537 1347.44 630.456C1346.13 627.262 1345.48 623.578 1345.48 619.394V577.626H1329.41V562.766H1345.48V539.654Z" fill="white"/>
<path d="M1429.57 533.875H1405.64V553.357H1429.57V533.875Z" fill="white"/>
<path d="M1405.64 562.768H1429.57V642.673H1405.64V562.768Z" fill="white"/>
<path d="M1470.31 527.683C1465.89 529.171 1462.61 531.758 1460.48 535.443C1458.35 539.133 1457.28 544.222 1457.28 550.714V562.767H1442.36V577.625H1457.28V642.673H1481.21V577.625H1503.02V562.767H1481.21V549.395C1481.21 545.873 1481.98 543.477 1483.51 542.212C1485.04 540.946 1487.82 540.312 1491.87 540.312C1494.27 540.312 1498.97 540.755 1505.97 541.635V526.774C1498.1 525.895 1492.14 525.455 1488.1 525.455C1480.67 525.455 1474.74 526.197 1470.31 527.683Z" fill="white"/>
<path fill-rule="evenodd" clip-rule="evenodd" d="M1517.77 642.672L1557.11 535.524H1588.26L1626.62 642.672H1600.72L1591.21 614.442H1552.36L1543.02 642.672H1517.77ZM1571.54 556.988L1558.1 597.271H1585.64L1572.2 556.988H1571.54Z" fill="white"/>
<path d="M1664 535.526H1638.43V642.673H1664V535.526Z" fill="white"/>
<path fill-rule="evenodd" clip-rule="evenodd" d="M727.728 741.991L742.376 704.884H748.735L763.043 741.991H757.308L753.108 730.726H737.322L733.179 741.991H727.728ZM744.988 710.145L738.743 726.896H751.744L745.499 710.145H744.988Z" fill="white"/>
<path d="M774.17 704.885H768.663V741.992H774.17V704.885Z" fill="white"/>
<path d="M816.803 735.759L816.976 735.816L828.158 704.884H836.108V741.991H831.281V710.602H830.997L819.131 741.991H814.194L801.987 710.602H801.704V741.991H796.763V704.884H804.996L816.803 735.759Z" fill="white"/>
<path fill-rule="evenodd" clip-rule="evenodd" d="M867.331 716.034C866.687 715.346 865.779 714.832 864.605 714.489C863.471 714.186 862.402 713.983 861.398 713.889C860.396 713.795 858.91 713.746 856.942 713.746C855.467 713.746 854.047 713.783 852.682 713.86C851.471 713.975 850.289 714.215 849.137 714.574C847.98 714.937 847.121 715.443 846.551 716.091C845.873 716.814 845.323 717.825 844.906 719.121C844.489 720.415 844.282 721.923 844.282 723.637V733.242C844.282 735.416 844.566 737.141 845.133 738.417C845.7 739.694 846.61 740.617 847.858 741.191C849.069 741.762 850.28 742.133 851.491 742.305C852.702 742.476 854.52 742.562 856.942 742.562C858.38 742.562 859.818 742.522 861.256 742.447C862.467 742.333 863.641 742.105 864.775 741.762C865.913 741.419 866.781 740.942 867.388 740.331C868.865 738.846 869.602 736.484 869.602 733.242V723.637C869.602 721.883 869.393 720.341 868.979 719.007C868.525 717.711 867.974 716.719 867.331 716.034ZM864.378 733.985C864.378 735.244 864.236 736.227 863.953 736.929C863.669 737.635 863.187 738.14 862.507 738.446C861.823 738.789 861.123 738.997 860.405 739.074C859.685 739.151 858.533 739.189 856.942 739.189C855.351 739.189 854.197 739.151 853.479 739.074C852.759 738.997 852.058 738.789 851.378 738.446C850.697 738.14 850.215 737.635 849.931 736.929C849.648 736.227 849.503 735.244 849.503 733.985V722.78C849.503 721.063 849.713 719.816 850.13 719.036C850.544 718.253 851.256 717.739 852.257 717.491C853.261 717.245 854.821 717.119 856.942 717.119C859.061 717.119 860.623 717.245 861.625 717.491C862.629 717.739 863.338 718.253 863.754 719.036C864.171 719.816 864.378 721.063 864.378 722.78V733.985Z" fill="white"/>
<path fill-rule="evenodd" clip-rule="evenodd" d="M896.569 717.292L896.455 710.258V701.969H901.563V741.989H896.569V738.731C896.569 739.762 895.755 740.638 894.127 741.361C892.499 742.161 890.247 742.561 887.371 742.561C884.646 742.561 882.507 742.284 880.956 741.732C879.402 741.181 878.279 740.276 877.578 739.016C876.878 737.76 876.529 736.006 876.529 733.758V721.58C876.529 718.798 877.388 716.796 879.11 715.576C880.831 714.357 883.682 713.745 887.655 713.745C890.04 713.745 892.093 714.051 893.815 714.662C895.536 715.27 896.415 716.147 896.455 717.292H896.569ZM894.581 738.045C895.831 737.397 896.455 736.292 896.455 734.729V721.066C896.455 718.586 893.937 717.35 888.903 717.35C885.877 717.35 883.908 717.575 882.998 718.035C882.054 718.492 881.58 719.503 881.58 721.066V734.729C881.58 736.292 882.099 737.397 883.14 738.045C884.181 738.694 885.95 739.016 888.449 739.016C891.288 739.016 893.333 738.694 894.581 738.045Z" fill="white"/>
<path fill-rule="evenodd" clip-rule="evenodd" d="M921.093 713.746C916.817 713.746 913.722 714.48 911.811 715.948C909.899 717.416 908.944 719.826 908.944 723.18V734.101C908.944 739.742 913.147 742.561 921.547 742.561C924.689 742.561 927.999 742.181 931.482 741.419V737.474C927.925 738.388 924.84 738.845 922.228 738.845C919.465 738.845 917.421 738.426 916.099 737.589C914.772 736.749 914.111 735.378 914.111 733.47V729.297H932.562V723.18C932.562 719.712 931.663 717.273 929.865 715.862C928.067 714.451 925.143 713.746 921.093 713.746ZM927.452 725.924H914.111V721.58C914.111 719.904 914.638 718.75 915.699 718.121C916.76 717.49 918.461 717.176 920.81 717.176C923.232 717.176 924.945 717.49 925.946 718.121C926.95 718.75 927.452 719.904 927.452 721.58V725.924Z" fill="white"/>
<path d="M940.338 701.969H945.449V741.992H940.338V701.969Z" fill="white"/>
<path d="M971.847 732.213V714.834C971.847 712.052 972.944 710.184 975.139 709.23C976.16 708.81 977.221 708.516 978.318 708.344C979.416 708.17 980.701 708.087 982.178 708.087C985.207 708.087 988.537 708.544 992.17 709.458V705.343C988.954 704.617 985.585 704.254 982.065 704.254C971.733 704.254 966.566 707.799 966.566 714.891V732.499C966.566 739.208 971.733 742.561 982.065 742.561C985.735 742.561 989.181 742.198 992.397 741.475V737.246C988.764 738.16 985.434 738.616 982.405 738.616C975.366 738.617 971.847 736.483 971.847 732.213Z" fill="white"/>
<path fill-rule="evenodd" clip-rule="evenodd" d="M1018.68 714.489C1019.86 714.832 1020.76 715.346 1021.41 716.034C1022.05 716.719 1022.6 717.711 1023.06 719.007C1023.47 720.341 1023.68 721.883 1023.68 723.637V733.242C1023.68 736.484 1022.94 738.846 1021.46 740.331C1020.86 740.942 1019.99 741.419 1018.85 741.762C1017.72 742.105 1016.54 742.333 1015.33 742.447C1013.9 742.522 1012.46 742.562 1011.02 742.562C1008.6 742.562 1006.78 742.476 1005.57 742.305C1004.36 742.133 1003.15 741.762 1001.94 741.191C1000.69 740.617 999.777 739.694 999.21 738.417C998.642 737.141 998.359 735.416 998.359 733.242V723.637C998.359 721.923 998.566 720.415 998.983 719.121C999.4 717.825 999.95 716.814 1000.63 716.091C1001.2 715.443 1002.06 714.937 1003.21 714.574C1004.37 714.215 1005.55 713.975 1006.76 713.86C1008.12 713.783 1009.54 713.746 1011.02 713.746C1012.99 713.746 1014.47 713.795 1015.47 713.889C1016.48 713.983 1017.55 714.186 1018.68 714.489ZM1018.03 736.929C1018.31 736.227 1018.46 735.244 1018.46 733.985V722.78C1018.46 721.063 1018.25 719.816 1017.83 719.036C1017.41 718.253 1016.71 717.739 1015.7 717.491C1014.7 717.245 1013.14 717.119 1011.02 717.119C1008.9 717.119 1007.34 717.245 1006.33 717.491C1005.33 717.739 1004.62 718.253 1004.21 719.036C1003.79 719.816 1003.58 721.063 1003.58 722.78V733.985C1003.58 735.244 1003.72 736.227 1004.01 736.929C1004.29 737.635 1004.77 738.14 1005.45 738.446C1006.14 738.789 1006.84 738.997 1007.56 739.074C1008.27 739.151 1009.43 739.189 1011.02 739.189C1012.61 739.189 1013.76 739.151 1014.48 739.074C1015.2 738.997 1015.9 738.789 1016.58 738.446C1017.26 738.14 1017.75 737.635 1018.03 736.929Z" fill="white"/>
<path d="M1063.99 713.747C1061.49 713.747 1059.38 714.07 1057.66 714.718C1055.93 715.367 1054.9 716.301 1054.56 717.52C1053.43 715.004 1050.57 713.747 1045.99 713.747C1040.35 713.747 1037.26 715.061 1036.74 717.691V714.318H1031.63V741.991H1036.74V722.036C1036.74 720.779 1036.94 719.836 1037.36 719.208C1037.77 718.577 1038.51 718.129 1039.58 717.863C1040.63 717.597 1042.2 717.463 1044.29 717.463C1046.86 717.463 1048.52 717.94 1049.28 718.891C1049.62 719.348 1049.85 719.808 1049.96 720.265C1050.08 720.722 1050.13 721.313 1050.13 722.036V741.991H1055.24V722.036C1055.24 720.816 1055.42 719.885 1055.78 719.234C1056.14 718.588 1056.81 718.129 1057.8 717.863C1058.78 717.597 1060.28 717.463 1062.28 717.463C1064.9 717.463 1066.58 717.94 1067.34 718.891C1067.68 719.348 1067.9 719.808 1068.02 720.265C1068.13 720.722 1068.19 721.313 1068.19 722.036V741.991H1073.3V721.693C1073.3 718.948 1072.6 716.94 1071.2 715.661C1069.8 714.384 1067.39 713.747 1063.99 713.747Z" fill="white"/>
<path fill-rule="evenodd" clip-rule="evenodd" d="M1087.26 717.291C1087.68 714.928 1090.8 713.746 1096.63 713.746C1100.11 713.746 1102.74 714.48 1104.52 715.948C1106.3 717.416 1107.19 719.293 1107.19 721.58V732.956C1107.19 734.596 1106.95 736.024 1106.48 737.243C1106.01 738.466 1105.39 739.417 1104.64 740.102C1103.95 740.751 1103.02 741.268 1101.82 741.648C1100.63 742.027 1099.45 742.276 1098.28 742.39C1097.22 742.504 1095.93 742.561 1094.42 742.561C1092.75 742.561 1091.23 742.362 1089.85 741.962C1088.46 741.562 1087.6 740.982 1087.26 740.217V753.883H1082.15V714.317H1087.2V717.291H1087.26ZM1101.29 737.072C1101.74 736.312 1101.97 735.15 1101.97 733.585V723.408C1101.97 721.695 1101.74 720.418 1101.29 719.578C1100.83 718.741 1100.08 718.179 1099.04 717.89C1098 717.605 1096.48 717.462 1094.47 717.462C1092.47 717.462 1090.97 717.605 1089.99 717.89C1089 718.179 1088.3 718.73 1087.89 719.55C1087.47 720.37 1087.26 721.655 1087.26 723.408V733.585C1087.26 735.15 1087.48 736.312 1087.92 737.072C1088.35 737.837 1089.08 738.36 1090.1 738.646C1091.12 738.931 1092.6 739.074 1094.53 739.074C1096.5 739.074 1098 738.931 1099.04 738.646C1100.08 738.36 1100.83 737.837 1101.29 737.072Z" fill="white"/>
<path d="M1123.88 714.461C1122.71 714.938 1121.74 715.566 1120.99 716.346C1120.23 717.129 1119.85 717.96 1119.85 718.834V714.318H1115.02V741.991H1120.13V722.495C1120.13 720.856 1120.67 719.722 1121.75 719.091C1122.83 718.463 1124.58 718.148 1127 718.148H1129.84V713.747H1127.34C1126.21 713.747 1125.06 713.984 1123.88 714.461Z" fill="white"/>
<path fill-rule="evenodd" clip-rule="evenodd" d="M1136.8 715.948C1138.71 714.48 1141.8 713.746 1146.08 713.746C1150.13 713.746 1153.05 714.451 1154.85 715.862C1156.65 717.273 1157.55 719.712 1157.55 723.18V729.297H1139.1V733.47C1139.1 735.378 1139.76 736.749 1141.08 737.589C1142.41 738.426 1144.45 738.845 1147.21 738.845C1149.82 738.845 1152.91 738.388 1156.47 737.474V741.419C1152.98 742.181 1149.67 742.561 1146.53 742.561C1138.13 742.561 1133.93 739.742 1133.93 734.101V723.18C1133.93 719.826 1134.88 717.416 1136.8 715.948ZM1139.1 725.924H1152.44V721.58C1152.44 719.904 1151.93 718.75 1150.93 718.121C1149.93 717.49 1148.22 717.176 1145.79 717.176C1143.45 717.176 1141.74 717.49 1140.68 718.121C1139.63 718.75 1139.1 719.904 1139.1 721.58V725.924Z" fill="white"/>
<path d="M1177.02 725.753H1173.84C1170.47 725.753 1168.79 724.819 1168.79 722.951V720.606C1168.79 719.349 1169.28 718.455 1170.26 717.921C1171.25 717.387 1173.08 717.119 1175.77 717.119C1178.12 717.119 1180.97 717.387 1184.34 717.921V714.203C1179.38 713.9 1176.6 713.746 1176 713.746C1167.82 713.746 1163.73 715.919 1163.73 720.263V722.837C1163.73 724.973 1164.48 726.63 1165.97 727.812C1167.47 728.992 1169.64 729.583 1172.48 729.583H1175.6C1177.38 729.583 1178.66 729.831 1179.46 730.326C1180.25 730.822 1180.65 731.662 1180.65 732.842V735.644C1180.65 736.94 1180.12 737.826 1179.06 738.303C1178 738.78 1176.26 739.017 1173.84 739.017C1171.91 739.017 1168.73 738.654 1164.3 737.931V741.876C1167.67 742.333 1170.81 742.561 1173.73 742.561C1177.78 742.561 1180.78 741.961 1182.75 740.762C1184.72 739.559 1185.71 737.531 1185.71 734.672V732.27C1185.71 727.926 1182.81 725.753 1177.02 725.753Z" fill="white"/>
<path d="M1201.26 725.753H1204.44C1210.23 725.753 1213.12 727.926 1213.12 732.27V734.672C1213.12 737.531 1212.14 739.559 1210.17 740.762C1208.2 741.961 1205.2 742.561 1201.15 742.561C1198.23 742.561 1195.09 742.333 1191.72 741.876V737.931C1196.15 738.654 1199.33 739.017 1201.26 739.017C1203.68 739.017 1205.42 738.78 1206.48 738.303C1207.54 737.826 1208.07 736.94 1208.07 735.644V732.842C1208.07 731.662 1207.67 730.822 1206.88 730.326C1206.09 729.831 1204.8 729.583 1203.02 729.583H1199.9C1197.06 729.583 1194.89 728.992 1193.39 727.812C1191.9 726.63 1191.15 724.973 1191.15 722.837V720.263C1191.15 715.919 1195.24 713.746 1203.42 713.746C1204.02 713.746 1206.8 713.9 1211.76 714.203V717.921C1208.39 717.387 1205.54 717.119 1203.19 717.119C1200.5 717.119 1198.67 717.387 1197.68 717.921C1196.7 718.455 1196.21 719.349 1196.21 720.606V722.951C1196.21 724.819 1197.89 725.753 1201.26 725.753Z" fill="white"/>
<path fill-rule="evenodd" clip-rule="evenodd" d="M1242.19 716.034C1241.55 715.346 1240.64 714.832 1239.46 714.489C1238.33 714.186 1237.26 713.983 1236.26 713.889C1235.26 713.795 1233.77 713.746 1231.8 713.746C1230.33 713.746 1228.91 713.783 1227.54 713.86C1226.33 713.975 1225.15 714.215 1224 714.574C1222.84 714.937 1221.98 715.443 1221.41 716.091C1220.73 716.814 1220.18 717.825 1219.77 719.121C1219.35 720.415 1219.14 721.923 1219.14 723.637V733.242C1219.14 735.416 1219.43 737.141 1219.99 738.417C1220.56 739.694 1221.47 740.617 1222.72 741.191C1223.93 741.762 1225.14 742.133 1226.35 742.305C1227.56 742.476 1229.38 742.562 1231.8 742.562C1233.24 742.562 1234.68 742.522 1236.12 742.447C1237.33 742.333 1238.5 742.105 1239.63 741.762C1240.77 741.419 1241.64 740.942 1242.25 740.331C1243.72 738.846 1244.46 736.484 1244.46 733.242V723.637C1244.46 721.883 1244.25 720.341 1243.84 719.007C1243.38 717.711 1242.83 716.719 1242.19 716.034ZM1239.24 733.985C1239.24 735.244 1239.1 736.227 1238.81 736.929C1238.53 737.635 1238.05 738.14 1237.37 738.446C1236.68 738.789 1235.98 738.997 1235.26 739.074C1234.54 739.151 1233.39 739.189 1231.8 739.189C1230.21 739.189 1229.06 739.151 1228.34 739.074C1227.62 738.997 1226.92 738.789 1226.24 738.446C1225.56 738.14 1225.07 737.635 1224.79 736.929C1224.51 736.227 1224.36 735.244 1224.36 733.985V722.78C1224.36 721.063 1224.57 719.816 1224.99 719.036C1225.4 718.253 1226.12 717.739 1227.12 717.491C1228.12 717.245 1229.68 717.119 1231.8 717.119C1233.92 717.119 1235.48 717.245 1236.48 717.491C1237.49 717.739 1238.2 718.253 1238.61 719.036C1239.03 719.816 1239.24 721.063 1239.24 722.78V733.985Z" fill="white"/>
<path d="M1258.37 716.346C1259.13 715.566 1260.09 714.938 1261.27 714.461C1262.44 713.984 1263.59 713.747 1264.73 713.747H1267.23V718.148H1264.39C1261.96 718.148 1260.21 718.463 1259.14 719.091C1258.06 719.722 1257.52 720.856 1257.52 722.495V741.991H1252.41V714.318H1257.23V718.834C1257.23 717.96 1257.61 717.129 1258.37 716.346Z" fill="white"/>
</g>
<g clip-path="url(#clip1_3322_12)">
<path d="M910.932 1152C912.172 1152 913.285 1152.75 913.735 1153.88L922.669 1176.42C923.272 1177.94 922.505 1179.65 920.957 1180.24C919.408 1180.83 917.664 1180.08 917.062 1178.56L908.874 1157.91L900.685 1178.56C900.235 1179.7 899.122 1180.44 897.882 1180.44C896.641 1180.44 895.528 1179.7 895.078 1178.56L886.889 1157.91L878.701 1178.56C878.099 1180.08 876.355 1180.83 874.807 1180.24C873.259 1179.65 872.491 1177.94 873.095 1176.42L882.028 1153.88C882.478 1152.75 883.591 1152 884.832 1152H888.947C890.188 1152 891.301 1152.75 891.751 1153.88L897.882 1169.35L904.012 1153.88C904.462 1152.75 905.575 1152 906.816 1152H910.932Z" fill="#F8FAFC"/>
<path d="M949.755 1154.95C949.755 1153.32 951.102 1152 952.764 1152C954.425 1152 955.772 1153.32 955.772 1154.95V1165.8C955.772 1173.87 949.08 1180.44 940.855 1180.44C932.629 1180.44 925.937 1173.87 925.937 1165.8V1154.95C925.937 1153.32 927.284 1152 928.946 1152C930.607 1152 931.954 1153.32 931.954 1154.95V1165.8C931.954 1170.62 935.947 1174.54 940.855 1174.54C945.762 1174.54 949.755 1170.62 949.755 1165.8V1154.95Z" fill="#F8FAFC"/>
<path d="M975.594 1174.54H986.565C988.226 1174.54 989.574 1175.86 989.574 1177.49C989.574 1179.12 988.226 1180.44 986.565 1180.44H975.594C967.369 1180.44 960.677 1173.87 960.677 1165.8V1154.95C960.677 1153.32 962.024 1152 963.685 1152C965.346 1152 966.694 1153.32 966.694 1154.95V1165.8C966.694 1170.62 970.687 1174.54 975.594 1174.54Z" fill="#F8FAFC"/>
<path d="M1063.61 1152.2C1062.06 1151.61 1060.32 1152.36 1059.72 1153.88L1051.53 1174.54L1043.34 1153.88C1042.74 1152.36 1040.99 1151.61 1039.45 1152.2C1037.9 1152.79 1037.13 1154.51 1037.73 1156.03L1046.67 1178.56C1047.12 1179.7 1048.23 1180.44 1049.47 1180.44H1053.59C1054.83 1180.44 1055.94 1179.7 1056.39 1178.56L1065.32 1156.03C1065.93 1154.51 1065.16 1152.79 1063.61 1152.2Z" fill="#F8FAFC"/>
<path d="M992.405 1152H1013.18C1014.85 1152 1016.19 1153.32 1016.19 1154.95C1016.19 1156.59 1014.85 1157.91 1013.18 1157.91H1005.8V1177.49C1005.8 1179.12 1004.46 1180.44 1002.8 1180.44C1001.13 1180.44 999.787 1179.12 999.787 1177.49V1157.91H992.405C990.744 1157.91 989.397 1156.59 989.397 1154.95C989.397 1153.32 990.744 1152 992.405 1152Z" fill="#F8FAFC"/>
<path d="M1026.31 1152C1024.65 1152 1023.3 1153.32 1023.3 1154.95V1177.49C1023.3 1179.12 1024.65 1180.44 1026.31 1180.44C1027.97 1180.44 1029.32 1179.12 1029.32 1177.49V1154.95C1029.32 1153.32 1027.97 1152 1026.31 1152Z" fill="#F8FAFC"/>
<path d="M1098.79 1154.95C1098.79 1156.59 1097.44 1157.91 1095.78 1157.91H1076.37V1163.25H1085.39C1087.05 1163.25 1088.4 1164.57 1088.4 1166.21C1088.4 1167.84 1087.05 1169.16 1085.39 1169.16H1076.37V1174.54H1095.78C1097.44 1174.54 1098.79 1175.86 1098.79 1177.49C1098.79 1179.12 1097.44 1180.44 1095.78 1180.44H1073.36C1071.7 1180.44 1070.35 1179.12 1070.35 1177.49V1154.95C1070.35 1153.32 1071.7 1152 1073.36 1152H1095.78C1097.44 1152 1098.79 1153.32 1098.79 1154.95Z" fill="#F8FAFC"/>
<path d="M1197 1174.54H1177.58V1169.16H1186.6C1188.27 1169.16 1189.61 1167.84 1189.61 1166.21C1189.61 1164.57 1188.27 1163.25 1186.6 1163.25H1177.58V1157.91H1197C1198.66 1157.91 1200 1156.59 1200 1154.95C1200 1153.32 1198.66 1152 1197 1152H1174.57C1172.91 1152 1171.57 1153.32 1171.57 1154.95V1177.49C1171.57 1179.12 1172.91 1180.44 1174.57 1180.44H1197C1198.66 1180.44 1200 1179.12 1200 1177.49C1200 1175.86 1198.66 1174.54 1197 1174.54Z" fill="#F8FAFC"/>
<path d="M1107 1152H1123.95C1128.78 1152 1132.7 1155.85 1132.7 1160.59C1132.7 1162.86 1131.79 1164.92 1130.33 1166.45C1131.8 1167.73 1132.7 1169.55 1132.7 1171.83V1177.49C1132.7 1179.12 1131.35 1180.44 1129.69 1180.44C1128.03 1180.44 1126.68 1179.12 1126.68 1177.49V1171.83C1126.68 1170.39 1125.52 1169.23 1124.07 1169.17C1124.05 1169.17 1124.03 1169.17 1124.02 1169.17C1124.01 1169.17 1124 1169.17 1123.99 1169.17C1123.98 1169.18 1123.97 1169.18 1123.95 1169.18H1117.12C1115.45 1169.18 1114.11 1167.85 1114.11 1166.22C1114.11 1164.59 1115.45 1163.27 1117.12 1163.27H1123.95C1125.46 1163.27 1126.68 1162.07 1126.68 1160.59C1126.68 1159.11 1125.46 1157.91 1123.95 1157.91H1110.01V1177.49C1110.01 1179.12 1108.66 1180.44 1107 1180.44C1105.34 1180.44 1103.99 1179.12 1103.99 1177.49V1154.95C1103.99 1153.32 1105.34 1152 1107 1152Z" fill="#F8FAFC"/>
<path d="M1146.67 1157.91H1163.62C1165.28 1157.91 1166.63 1156.59 1166.63 1154.95C1166.63 1153.32 1165.28 1152 1163.62 1152H1146.67C1141.85 1152 1137.92 1155.85 1137.92 1160.59C1137.92 1165.32 1141.85 1169.18 1146.67 1169.18L1157.88 1169.17C1159.39 1169.17 1160.61 1170.37 1160.61 1171.85C1160.61 1173.33 1159.39 1174.53 1157.88 1174.53H1140.93C1139.27 1174.53 1137.92 1175.85 1137.92 1177.48C1137.92 1179.11 1139.27 1180.44 1140.93 1180.44H1157.88C1162.7 1180.44 1166.63 1176.58 1166.63 1171.85C1166.63 1167.11 1162.7 1163.26 1157.88 1163.26L1146.67 1163.27C1145.16 1163.27 1143.94 1162.07 1143.94 1160.59C1143.94 1159.11 1145.16 1157.91 1146.67 1157.91Z" fill="#F8FAFC"/>
<path d="M978.488 1212.26C978.488 1214.75 980.42 1216 984.283 1216C985.656 1216 986.944 1215.86 988.146 1215.6V1214.02C986.788 1214.36 985.543 1214.53 984.411 1214.53C981.778 1214.53 980.462 1213.74 980.462 1212.16V1205.7C980.462 1204.67 980.873 1203.98 981.694 1203.62C982.076 1203.47 982.472 1203.36 982.882 1203.31C983.293 1203.23 983.774 1203.2 984.326 1203.2C985.458 1203.2 986.703 1203.37 988.062 1203.71V1202.18C986.859 1201.91 985.599 1201.78 984.283 1201.78C980.42 1201.78 978.488 1203.09 978.488 1205.73V1212.26Z" fill="#F8FAFC"/>
<path fill-rule="evenodd" clip-rule="evenodd" d="M996.286 1216C992.437 1216 990.512 1214.75 990.512 1212.26V1205.75C990.512 1203.11 992.437 1201.8 996.286 1201.8C1000.18 1201.8 1002.12 1203.11 1002.12 1205.72V1212.26C1002.12 1213.59 1001.59 1214.55 1000.51 1215.13C999.435 1215.71 998.027 1216 996.286 1216ZM996.328 1214.62C998.861 1214.62 1000.13 1213.83 1000.13 1212.24V1205.68C1000.13 1203.98 998.854 1203.14 996.307 1203.14C995.076 1203.14 994.128 1203.33 993.463 1203.71C992.812 1204.09 992.486 1204.75 992.486 1205.68V1212.24C992.486 1213.83 993.767 1214.62 996.328 1214.62Z" fill="#F8FAFC"/>
<path d="M1089.33 1216C1088.68 1216 1088.1 1215.97 1087.59 1215.91C1087.1 1215.86 1086.57 1215.75 1086.02 1215.6C1085.4 1215.43 1084.87 1215.21 1084.45 1214.96C1084.03 1214.69 1083.68 1214.33 1083.41 1213.88C1083.13 1213.39 1082.98 1212.86 1082.98 1212.26V1205.75C1082.98 1204.95 1083.19 1204.27 1083.6 1203.71C1084.01 1203.14 1084.58 1202.73 1085.3 1202.48C1085.99 1202.24 1086.65 1202.07 1087.27 1201.97C1087.91 1201.85 1088.6 1201.8 1089.33 1201.8C1091.09 1201.8 1092.67 1201.91 1094.09 1202.14V1203.73C1093.55 1203.6 1092.78 1203.49 1091.77 1203.39C1090.78 1203.28 1089.98 1203.22 1089.37 1203.22C1086.47 1203.22 1085.02 1204.06 1085.02 1205.72V1212.22C1085.02 1212.67 1085.16 1213.07 1085.43 1213.41C1085.71 1213.75 1086.09 1214 1086.57 1214.15C1087.03 1214.32 1087.48 1214.44 1087.93 1214.51C1088.38 1214.57 1088.89 1214.6 1089.46 1214.6C1090.41 1214.6 1091.42 1214.47 1092.49 1214.22V1209.4H1089.27V1207.95H1094.4V1215.36C1092.57 1215.79 1090.87 1216 1089.33 1216Z" fill="#F8FAFC"/>
<path d="M1068.07 1202.01H1070.55L1078.05 1213.39V1202.01H1079.85V1215.79H1077.37L1069.87 1204.22V1215.79H1068.07V1202.01Z" fill="#F8FAFC"/>
<path d="M1064.51 1202.01H1062.45V1215.79H1064.51V1202.01Z" fill="#F8FAFC"/>
<path d="M1053.43 1203.45H1048.76V1202.01H1060.16V1203.45H1055.51V1215.79H1053.43V1203.45Z" fill="#F8FAFC"/>
<path d="M1039.09 1215.85C1039.65 1215.95 1040.31 1216 1041.06 1216C1044.66 1216 1046.45 1214.75 1046.45 1212.26V1202.01H1044.48V1212.24C1044.48 1213.11 1044.2 1213.72 1043.63 1214.09C1043.08 1214.44 1042.24 1214.62 1041.1 1214.62C1039.97 1214.62 1039.12 1214.44 1038.53 1214.09C1037.95 1213.72 1037.66 1213.11 1037.66 1212.24V1202.01H1035.69V1212.26C1035.69 1213.01 1035.84 1213.65 1036.14 1214.17C1036.45 1214.7 1036.89 1215.09 1037.45 1215.34C1037.99 1215.58 1038.53 1215.75 1039.09 1215.85Z" fill="#F8FAFC"/>
<path fill-rule="evenodd" clip-rule="evenodd" d="M1023.58 1202.01H1028.08C1028.72 1202.01 1029.23 1202.03 1029.61 1202.05C1030.01 1202.08 1030.43 1202.15 1030.87 1202.24C1031.32 1202.34 1031.68 1202.49 1031.95 1202.69C1032.23 1202.89 1032.47 1203.16 1032.67 1203.5C1032.85 1203.82 1032.95 1204.23 1032.95 1204.73V1207.59C1032.95 1208.74 1032.5 1209.57 1031.61 1210.08C1030.73 1210.57 1029.43 1210.82 1027.7 1210.82H1025.64V1215.79H1023.58V1202.01ZM1027.98 1209.53C1028.87 1209.53 1029.58 1209.36 1030.12 1209.04C1030.66 1208.71 1030.93 1208.2 1030.93 1207.49V1204.98C1030.93 1204.6 1030.83 1204.29 1030.63 1204.05C1030.43 1203.79 1030.15 1203.62 1029.78 1203.52C1029.43 1203.43 1029.13 1203.38 1028.89 1203.35C1028.65 1203.32 1028.33 1203.31 1027.94 1203.31H1025.62V1209.53H1027.98Z" fill="#F8FAFC"/>
<path d="M1008.38 1202.01H1005.3V1215.79H1007.15V1204.13H1007.25L1011.82 1215.79H1013.66L1018.1 1204.13H1018.21V1215.79H1020.01V1202.01H1017.04L1012.86 1213.49L1012.79 1213.47L1008.38 1202.01Z" fill="#F8FAFC"/>
<path d="M766.15 1154.78C770.136 1153 774.552 1152 779.201 1152C783.85 1152 788.265 1153 792.251 1154.78H766.15Z" fill="#F01438"/>
<path d="M753.662 1164.71H777.513C777.554 1164.77 777.592 1164.82 777.631 1164.88C777.662 1164.92 777.693 1164.96 777.725 1165.01L777.726 1164.99L777.727 1164.98H780.679C780.521 1165.19 780.366 1165.41 780.211 1165.63H805.44C805.414 1165.59 805.389 1165.55 805.364 1165.52C805.327 1165.46 805.289 1165.41 805.25 1165.35H832.408C831.521 1164.12 830.548 1162.95 829.498 1161.85H802.339C802.287 1161.8 802.234 1161.75 802.182 1161.7C802.144 1161.66 802.106 1161.62 802.068 1161.58H783.595C783.53 1161.65 783.465 1161.71 783.4 1161.78C783.252 1161.93 783.104 1162.08 782.961 1162.23H775.444C775.44 1162.23 775.435 1162.23 775.43 1162.23L775.419 1162.23C775.453 1162.26 775.487 1162.3 775.521 1162.34C775.57 1162.39 775.62 1162.44 775.668 1162.49H755.508C755.457 1162.55 755.405 1162.61 755.353 1162.66C755.258 1162.77 755.163 1162.87 755.071 1162.97H727.879C727.52 1163.38 727.171 1163.8 726.834 1164.23H754.026C753.943 1164.34 753.862 1164.45 753.782 1164.55C753.742 1164.61 753.702 1164.66 753.662 1164.71Z" fill="#F01438"/>
<path d="M748.506 1174.91H775.712C775.603 1175.28 775.505 1175.66 775.409 1176.03H783.063C783.055 1176 783.048 1175.97 783.04 1175.94L783.025 1175.87L783.012 1175.82H810.188L810.159 1175.71L810.143 1175.65C810.134 1175.62 810.126 1175.58 810.117 1175.55H837.272C836.945 1174.36 836.551 1173.19 836.094 1172.05H808.938C808.917 1172 808.895 1171.95 808.872 1171.89C808.856 1171.86 808.84 1171.82 808.825 1171.78H781.65C781.634 1171.74 781.618 1171.71 781.601 1171.67C781.587 1171.64 781.573 1171.6 781.559 1171.57H776.914C776.757 1171.94 776.601 1172.31 776.459 1172.69H749.254C749.233 1172.75 749.212 1172.8 749.191 1172.86C749.151 1172.96 749.11 1173.07 749.073 1173.17H721.88C721.731 1173.59 721.589 1174.01 721.456 1174.43H748.648C748.615 1174.54 748.584 1174.64 748.553 1174.75L748.506 1174.91Z" fill="#F01438"/>
<path d="M820.272 1155.15C816.075 1153.13 811.37 1152 806.401 1152C801.538 1152 796.929 1153.09 792.801 1155.03C792.752 1155.05 792.704 1155.07 792.656 1155.1C792.618 1155.12 792.581 1155.14 792.544 1155.15H820.272Z" fill="#F01438"/>
<path d="M759.013 1152.77C760.463 1153.1 761.875 1153.52 763.243 1154.03L763.239 1154.04H740.754C742.12 1153.52 743.53 1153.1 744.977 1152.78H759.016L759.013 1152.77Z" fill="#F01438"/>
<path d="M747.445 1180.01H774.648C774.602 1180.38 774.568 1180.76 774.535 1181.13H783.936C783.934 1181.1 783.931 1181.07 783.929 1181.04C783.926 1181 783.924 1180.96 783.92 1180.92H811.097L811.093 1180.88L811.087 1180.81C811.083 1180.76 811.078 1180.7 811.073 1180.65H838.227C838.104 1179.46 837.914 1178.3 837.664 1177.15H810.512L810.495 1177.08L810.475 1176.99C810.466 1176.96 810.457 1176.92 810.449 1176.88H783.272C783.263 1176.84 783.254 1176.8 783.244 1176.77C783.236 1176.74 783.228 1176.7 783.221 1176.67H775.252C775.165 1177.04 775.079 1177.42 775.005 1177.79H747.799L747.784 1177.87L747.765 1177.96C747.744 1178.06 747.723 1178.17 747.704 1178.27H720.512C720.437 1178.69 720.371 1179.11 720.312 1179.53H747.504C747.489 1179.64 747.477 1179.75 747.464 1179.85L747.445 1180.01Z" fill="#F01438"/>
<path d="M772.691 1159.61H758.486C758.545 1159.56 758.604 1159.51 758.662 1159.46C758.791 1159.35 758.921 1159.24 759.053 1159.13H731.861C732.399 1158.7 732.952 1158.28 733.518 1157.87H760.711C760.887 1157.75 761.067 1157.63 761.248 1157.51L761.421 1157.39H769.756C769.672 1157.34 769.587 1157.28 769.503 1157.23C769.449 1157.2 769.396 1157.16 769.343 1157.13L769.349 1157.13L769.358 1157.13L769.375 1157.13H789.028C789.372 1156.91 789.721 1156.69 790.073 1156.48H795.576L795.66 1156.53C795.783 1156.61 795.907 1156.68 796.03 1156.75H823.189C824.849 1157.78 826.41 1158.95 827.85 1160.25H800.69C800.748 1160.31 800.806 1160.36 800.863 1160.42C800.902 1160.45 800.941 1160.49 800.98 1160.53H784.682C784.749 1160.46 784.815 1160.4 784.881 1160.34C785.047 1160.18 785.214 1160.03 785.387 1159.88H773.018C773.013 1159.88 773.008 1159.88 773.004 1159.88L772.993 1159.88C772.953 1159.84 772.914 1159.81 772.875 1159.78C772.814 1159.72 772.753 1159.67 772.691 1159.61Z" fill="#F01438"/>
<path d="M750.508 1169.81H777.713C777.53 1170.18 777.36 1170.55 777.192 1170.93H781.282L781.26 1170.88L781.241 1170.84C781.225 1170.8 781.209 1170.76 781.191 1170.72H808.368C808.351 1170.69 808.334 1170.65 808.318 1170.61C808.294 1170.56 808.27 1170.5 808.245 1170.45H835.398C834.831 1169.24 834.192 1168.07 833.485 1166.95H806.329C806.295 1166.9 806.261 1166.85 806.226 1166.79C806.201 1166.76 806.176 1166.72 806.151 1166.68H779.493C779.389 1166.84 779.286 1167 779.186 1167.16C779.097 1167.3 779.01 1167.45 778.924 1167.59H751.719C751.686 1167.65 751.653 1167.7 751.619 1167.76C751.556 1167.86 751.492 1167.97 751.431 1168.07H724.239C724.001 1168.49 723.773 1168.91 723.554 1169.33H750.746C750.69 1169.44 750.636 1169.55 750.583 1169.66L750.508 1169.81Z" fill="#F01438"/>
<path d="M783.92 1187.08H811.097C811.094 1187.11 811.09 1187.15 811.087 1187.19C811.083 1187.24 811.078 1187.3 811.073 1187.35H838.227C838.104 1188.54 837.914 1189.7 837.664 1190.85H810.512L810.496 1190.92L810.475 1191.01L810.468 1191.04L810.449 1191.12H783.272L783.258 1191.18L783.244 1191.23L783.235 1191.27L783.221 1191.33H775.252C775.165 1190.96 775.079 1190.58 775.005 1190.21H747.799C747.788 1190.15 747.777 1190.1 747.765 1190.04C747.744 1189.94 747.723 1189.83 747.704 1189.73H720.512C720.437 1189.31 720.371 1188.89 720.312 1188.47H747.504C747.489 1188.36 747.477 1188.25 747.464 1188.15L747.445 1187.99H774.648C774.602 1187.62 774.568 1187.24 774.535 1186.87H783.936C783.934 1186.9 783.931 1186.93 783.929 1186.96C783.926 1187 783.924 1187.04 783.92 1187.08Z" fill="#F01438"/>
<path d="M792.544 1212.84L792.614 1212.88L792.655 1212.9L792.74 1212.94L792.801 1212.97C796.929 1214.91 801.538 1216 806.401 1216C811.371 1216 816.076 1214.87 820.272 1212.84H792.544Z" fill="#F01438"/>
<path d="M811.187 1182.09L811.191 1182.15C811.193 1182.19 811.195 1182.22 811.197 1182.25H838.353C838.384 1182.83 838.401 1183.41 838.401 1184C838.401 1184.59 838.384 1185.17 838.353 1185.75H811.197C811.194 1185.8 811.19 1185.85 811.187 1185.91C811.184 1185.94 811.181 1185.98 811.179 1186.02H784.003C784 1186.06 783.997 1186.1 783.994 1186.13C783.991 1186.16 783.989 1186.2 783.986 1186.23H774.485C774.459 1185.86 774.435 1185.48 774.422 1185.11H747.217L747.211 1184.95C747.207 1184.84 747.202 1184.74 747.2 1184.63H720.008C720.004 1184.42 720 1184.21 720 1184C720 1183.79 720.004 1183.58 720.008 1183.37H747.2C747.202 1183.26 747.207 1183.16 747.211 1183.05L747.217 1182.89H774.422C774.435 1182.51 774.459 1182.14 774.485 1181.77H783.986C783.989 1181.8 783.991 1181.83 783.994 1181.86C783.997 1181.9 784 1181.94 784.003 1181.98H811.179C811.181 1182.02 811.184 1182.05 811.187 1182.09Z" fill="#F01438"/>
<path d="M810.188 1192.18H783.012C783.022 1192.14 783.031 1192.1 783.04 1192.06L783.05 1192.02L783.063 1191.97H775.409C775.505 1192.34 775.603 1192.72 775.712 1193.09H748.506L748.553 1193.25C748.584 1193.36 748.615 1193.46 748.648 1193.57H721.456C721.589 1193.99 721.731 1194.41 721.88 1194.83H749.073C749.11 1194.93 749.15 1195.04 749.19 1195.14L749.229 1195.24L749.254 1195.31H776.459C776.601 1195.69 776.757 1196.06 776.914 1196.43H781.559C781.573 1196.4 781.587 1196.36 781.601 1196.33C781.618 1196.29 781.634 1196.26 781.65 1196.22H808.825C808.84 1196.18 808.856 1196.14 808.872 1196.11C808.894 1196.05 808.917 1196 808.938 1195.95H836.094C836.551 1194.81 836.945 1193.64 837.272 1192.45H810.117C810.132 1192.39 810.145 1192.34 810.159 1192.29L810.188 1192.18Z" fill="#F01438"/>
<path d="M792.251 1213.22C788.265 1215 783.85 1216 779.201 1216C774.552 1216 770.136 1215 766.15 1213.22H792.251Z" fill="#F01438"/>
<path d="M800.98 1207.47H784.682L784.775 1207.56L784.879 1207.66C785.046 1207.81 785.214 1207.97 785.387 1208.12H772.991C772.951 1208.16 772.912 1208.19 772.873 1208.23C772.812 1208.28 772.752 1208.33 772.691 1208.39H758.487L758.596 1208.48L758.659 1208.53C758.79 1208.65 758.92 1208.76 759.053 1208.87H731.861C732.399 1209.3 732.952 1209.72 733.518 1210.12H760.711C760.887 1210.25 761.067 1210.37 761.248 1210.49L761.421 1210.6H769.755C769.673 1210.66 769.588 1210.71 769.504 1210.77C769.451 1210.8 769.398 1210.83 769.345 1210.87H789.028C789.372 1211.09 789.721 1211.31 790.073 1211.52H795.576L795.672 1211.46C795.791 1211.39 795.911 1211.32 796.03 1211.24H823.189C824.849 1210.22 826.409 1209.05 827.85 1207.75H800.689C800.748 1207.69 800.805 1207.64 800.862 1207.59C800.901 1207.55 800.94 1207.51 800.98 1207.47Z" fill="#F01438"/>
<path d="M781.191 1197.28H808.368C808.351 1197.31 808.334 1197.35 808.318 1197.39C808.294 1197.44 808.27 1197.49 808.245 1197.55H835.398C834.831 1198.76 834.192 1199.93 833.485 1201.05H806.329C806.295 1201.1 806.26 1201.15 806.225 1201.21C806.201 1201.24 806.175 1201.28 806.151 1201.32H779.504C779.466 1201.26 779.428 1201.2 779.389 1201.15C779.326 1201.05 779.263 1200.95 779.203 1200.86C779.192 1200.86 779.183 1200.86 779.172 1200.86L779.186 1200.84C779.097 1200.69 779.01 1200.55 778.924 1200.41H751.719C751.698 1200.37 751.676 1200.34 751.655 1200.3C751.644 1200.28 751.633 1200.26 751.622 1200.25C751.558 1200.14 751.493 1200.03 751.431 1199.93H724.239C724.001 1199.51 723.773 1199.09 723.554 1198.67H750.746C750.69 1198.56 750.636 1198.45 750.582 1198.34L750.508 1198.19H777.713C777.53 1197.82 777.36 1197.44 777.192 1197.07H781.282C781.268 1197.1 781.254 1197.13 781.24 1197.16L781.22 1197.21C781.21 1197.23 781.201 1197.25 781.191 1197.28Z" fill="#F01438"/>
<path d="M740.754 1213.96C742.12 1214.48 743.53 1214.9 744.977 1215.22H759.015C760.465 1214.9 761.878 1214.48 763.246 1213.96L763.238 1213.96L740.754 1213.96Z" fill="#F01438"/>
<path d="M780.217 1202.37H805.44C805.413 1202.41 805.387 1202.45 805.361 1202.49C805.324 1202.54 805.288 1202.59 805.25 1202.65H832.408C831.521 1203.88 830.548 1205.05 829.498 1206.15H802.339C802.287 1206.2 802.234 1206.25 802.181 1206.3C802.143 1206.34 802.105 1206.38 802.068 1206.42H783.595C783.53 1206.35 783.465 1206.29 783.4 1206.22C783.252 1206.07 783.104 1205.92 782.961 1205.77H775.421C775.454 1205.73 775.488 1205.7 775.522 1205.66C775.571 1205.61 775.62 1205.56 775.668 1205.51H755.508C755.457 1205.45 755.404 1205.39 755.352 1205.34C755.258 1205.23 755.163 1205.13 755.071 1205.03H727.879C727.52 1204.61 727.171 1204.2 726.834 1203.77H754.026C753.942 1203.66 753.86 1203.55 753.779 1203.44C753.74 1203.39 753.701 1203.34 753.662 1203.29H777.513C777.552 1203.24 777.588 1203.18 777.625 1203.13C777.655 1203.09 777.685 1203.05 777.716 1203C777.718 1203.01 777.72 1203.01 777.721 1203.01C777.723 1203.02 777.725 1203.02 777.727 1203.02H780.679C780.56 1202.86 780.444 1202.7 780.329 1202.53C780.292 1202.48 780.255 1202.43 780.217 1202.37Z" fill="#F01438"/>
</g>
<defs>
<clipPath id="clip0_3322_12">
<rect width="1400" height="376" fill="white" transform="translate(264 424)"/>
</clipPath>
<clipPath id="clip1_3322_12">
<rect width="480" height="64" fill="white" transform="translate(720 1152)"/>
</clipPath>
</defs>
</svg>
